PathFileType	4	(X/Y/Z)	D:\TRACE\spot_10-12-23\spot_arm_body_motion_1_7-platform.trc
DataRate	CameraRate	NumFrames	NumMarkers	Units	OrigDataRate	OrigDataStartFrame	OrigNumFrames
100.00	100.00	      36	5	mm	100.00	6126	      7000
Frame#	Time	Left_Front			Right_Front			Left_Aft			Right_Aft			Post			
		X1	Y1	Z1	X2	Y2	Z2	X3	Y3	Z3	X4	Y4	Z4	X5	Y5	Z5	

6126	61.250	-776.42596	-15.78761	-657.46002	790.73700	-17.46617	-632.99884	-707.96759	30.45323	479.97540	699.10144	31.79144	582.33179	11.65604	698.63635	-997.12708	
6127	61.260	-777.54572	-15.43547	-657.55884	789.80292	-17.41633	-632.93256	-708.82080	30.28340	480.04102	698.34161	31.76957	582.32953	10.65779	698.92737	-997.02197	
6128	61.270	-778.47522	-15.36484	-657.47137	789.00513	-17.26433	-633.00757	-709.85083	30.27455	480.01862	697.24060	31.73963	582.40485	9.49876	699.09528	-997.27692	
6129	61.280	-779.26575	-15.61391	-657.48999	787.86835	-17.00219	-633.13269	-710.76324	30.25141	480.11237	696.48102	31.68739	582.37653	8.65489	699.32172	-997.47260	
6130	61.290	-780.22107	-15.46217	-657.43530	786.83667	-16.92784	-633.07312	-711.76642	29.96719	480.10977	695.30768	31.28830	582.35907	7.69831	699.61835	-997.30048	
6131	61.300	-781.42352	-15.07306	-657.68054	785.98657	-16.92776	-632.92273	-712.62286	29.83025	480.14465	694.38324	31.23337	582.43311	6.83100	699.82214	-997.11414	
6132	61.310	-782.22211	-14.85074	-657.40143	784.98499	-16.70883	-632.83228	-713.62750	29.89375	480.16336	693.51697	31.31788	582.46497	5.86251	700.01099	-997.08331	
6133	61.320	-783.12085	-14.83167	-657.43201	784.09033	-16.48129	-632.85236	-714.69696	29.81748	480.28226	692.54285	31.30488	582.35675	4.71037	700.27264	-997.16724	
6134	61.330	-784.20166	-14.61969	-657.35376	783.04816	-16.37044	-632.83136	-715.51636	29.55609	480.25439	691.43805	31.12079	582.40997	3.92530	700.48779	-996.94983	
6135	61.340	-785.30353	-14.40980	-657.46338	782.12097	-16.34405	-632.89160	-716.46570	29.39363	480.27786	690.37201	30.72027	582.30676	2.88219	700.62415	-996.44867	
6136	61.350	-786.06097	-14.45089	-657.47937	781.06482	-16.23475	-632.93518	-717.62183	29.29635	480.24551	689.36890	30.53802	582.32343	2.01086	700.79803	-996.07129	
6137	61.360	-786.98413	-14.20084	-657.25299	780.20911	-16.04667	-632.84729	-718.21210	29.27449	480.29492	688.17389	30.68738	582.63257	1.11351	701.15674	-995.61652	
6138	61.370	-787.98511	-13.94707	-657.28986	779.21851	-15.76869	-632.77472	-719.36658	29.20643	480.30682	687.04230	30.58102	582.70087	0.32797	701.37744	-995.13214	
6139	61.380	-788.94800	-13.67191	-657.38702	778.26733	-15.61258	-632.69080	-720.30157	29.11541	480.35696	686.31018	30.57814	582.67487	-0.69069	701.69922	-994.74139	
6140	61.390	-790.11761	-13.47454	-657.25446	777.25708	-15.61941	-632.65851	-721.37085	28.96298	480.46124	685.46729	30.35373	582.51538	-2.16437	702.03467	-994.44983	
6141	61.400	-790.98254	-13.48345	-657.24634	776.28149	-15.50108	-632.67175	-722.42975	28.78012	480.52426	684.49341	30.15573	582.94476	-2.98300	702.12170	-994.24988	
6142	61.410	-791.85492	-13.39713	-657.26678	775.30328	-15.28906	-632.66486	-723.15833	28.72976	480.61636	683.49902	29.94099	583.02948	-3.91666	702.43121	-993.98560	
6143	61.420	-792.66644	-13.04155	-657.54144	774.31982	-14.84418	-632.60248	-724.21277	28.63381	480.65631	682.56866	29.86622	582.97998	-4.86496	702.73993	-993.71240	
6144	61.430	-793.91705	-12.34425	-657.19482	773.27191	-14.61887	-632.68622	-725.16443	28.57544	480.69507	681.63123	29.67724	583.00818	19.15194	749.55060	-1007.35791	
6145	61.440	-794.80237	-12.22952	-657.12714	772.32739	-14.57600	-632.65045	-726.11609	28.42135	480.72397	680.60345	29.30725	582.81616	26.65508	765.78107	-1012.06964	
6146	61.450	-795.89014	-11.99265	-657.14551	771.32672	-14.39595	-632.47681	-727.30377	28.14634	480.75830	679.65735	29.33472	583.09918	-7.87504	703.89288	-993.63910	
6147	61.460	-796.90448	-12.04121	-657.17963	770.51563	-13.97637	-632.52716	-728.07886	27.91203	480.79602	678.71698	28.99352	583.21692	-8.84848	704.11981	-993.38995	
6148	61.470	-797.60516	-11.90222	-656.98785	769.55243	-13.64881	-632.46375	-729.07513	27.81673	480.85184	677.79773	28.68310	583.36707	-9.42009	704.50592	-993.20966	
6149	61.480	-798.66895	-11.35871	-656.84814	768.65350	-13.33361	-632.44897	-730.00336	27.63711	480.85049	676.85706	28.60512	583.30310	-10.23505	705.22675	-992.92834	
6150	61.490	-799.65112	-11.07280	-657.08807	767.62506	-13.08951	-632.42188	-730.81158	27.54592	480.90994	675.99646	28.51155	583.21735	-11.61479	705.67249	-992.61469	
6151	61.500	-800.15503	-11.23505	-657.18384	766.65735	-12.98292	-632.43610	-732.03619	27.30019	480.92014	674.96521	28.20032	583.32745	-12.78137	705.90088	-992.16510	
6152	61.510	-801.57092	-10.68445	-656.66663	765.67328	-12.72333	-632.33636	-732.74353	27.12001	481.15488	673.96344	27.86794	583.14398	-13.54133	706.31836	-991.71405	
6153	61.520	-802.29138	-10.44134	-656.71655	764.76495	-12.48909	-632.23840	-733.72028	26.81666	481.18854	673.10632	27.76514	583.32690	-14.25539	706.79022	-991.25635	
6154	61.530	-803.33472	-9.79153	-656.71497	764.02429	-12.24230	-632.18915	-734.76361	26.64807	481.25735	672.23999	27.53755	583.50061	-15.14302	707.40192	-990.68475	
6155	61.540	-804.29724	-9.48562	-656.63605	762.90833	-11.70973	-632.12347	-735.48761	26.56356	481.20206	671.30371	27.21866	583.61554	-16.12033	707.87054	-989.99969	
6156	61.550	-805.02240	-9.40265	-656.58154	761.94934	-11.41123	-632.15692	-736.52716	26.34389	481.30035	670.27814	26.85710	583.61768	-16.93315	708.24506	-989.48901	
6157	61.560	-806.12268	-8.97893	-656.54254	761.05432	-11.16585	-632.20673	-737.51819	26.03040	481.41260	669.40558	26.68377	583.59253	-18.04218	708.73022	-988.90656	
6158	61.570	-807.25024	-8.42980	-656.61237	760.09009	-10.78564	-632.13910	-738.27075	25.89866	481.45184	668.36536	26.40850	583.94220	-18.38053	709.42755	-988.10486	
6159	61.580	-807.88953	-8.25151	-656.52002	759.27826	-10.42614	-631.99304	-739.34137	25.73792	481.56003	667.54529	26.12506	583.95129	-19.83607	709.83136	-987.98254	
6160	61.590	-808.89178	-8.02875	-656.25836	758.57428	-10.06344	-631.82678	-740.00641	25.43631	481.55295	666.61639	25.95834	584.04163	-20.42313	710.25574	-987.78583	
6161	61.600	-809.69897	-7.47178	-656.35059	757.59625	-9.66948	-631.71600	-740.99164	25.24167	481.64935	665.77112	25.63720	584.01202	-21.58632	710.93152	-987.58813	
